<svg id="svg" version="1.1" width="400" height="400" viewBox="0 0 400 400" xmlns="http://www.w3.org/2000/svg" xmlns:xlink="http://www.w3.org/1999/xlink"><g id="svgg"><path id="path0" d="M317.079 163.113 C 315.770 184.263,304.592 203.061,288.286 211.533 C 282.589 214.494,274.134 217.189,270.523 217.197 C 269.204 217.200,268.000 218.345,268.000 219.597 C 268.000 220.709,265.006 226.205,263.030 228.721 C 256.234 237.371,245.223 240.036,235.400 235.409 C 229.097 232.440,224.963 227.712,221.840 219.900 L 221.241 218.400 200.075 218.400 L 178.909 218.400 178.184 220.300 C 170.287 241.016,145.980 243.802,134.833 225.268 C 132.965 222.162,132.235 221.869,129.651 223.186 C 129.293 223.369,127.385 224.302,125.411 225.259 C 105.152 235.086,96.878 250.834,97.277 278.800 L 97.400 287.400 100.640 289.000 C 106.907 292.095,111.842 294.315,116.000 295.910 C 118.310 296.796,121.460 298.010,123.000 298.607 C 129.103 300.974,134.116 302.402,134.680 301.934 C 135.239 301.470,142.000 291.765,142.000 291.426 C 142.000 291.321,142.565 290.282,143.256 289.118 C 146.459 283.717,148.400 280.158,148.400 279.687 C 148.400 279.472,147.815 279.067,147.100 278.785 C 143.908 277.527,131.495 271.574,128.824 270.019 C 125.691 268.197,125.777 267.753,129.801 264.981 L 131.908 263.531 134.716 264.763 C 147.444 270.349,165.454 275.527,178.000 277.206 C 189.098 278.691,201.051 279.054,211.400 278.218 C 221.427 277.408,223.478 277.139,231.000 275.644 C 239.964 273.862,251.197 270.398,261.000 266.393 C 264.300 265.045,267.279 263.853,267.621 263.745 C 267.966 263.635,269.353 264.367,270.746 265.392 C 273.582 267.480,273.829 268.469,271.800 269.611 C 271.140 269.983,269.880 270.698,269.000 271.200 C 266.968 272.360,261.310 275.200,261.031 275.200 C 260.915 275.200,259.691 275.711,258.310 276.336 C 256.930 276.961,254.855 277.893,253.700 278.407 C 251.055 279.585,251.065 279.675,254.389 285.200 C 255.117 286.410,256.153 288.210,256.692 289.200 C 258.238 292.040,264.932 301.965,265.430 302.156 C 266.224 302.461,282.597 296.702,288.683 293.977 C 305.078 286.637,321.925 276.947,332.330 268.873 C 335.278 266.585,335.054 233.438,331.941 211.400 C 330.391 200.423,329.494 196.161,326.257 184.400 C 325.925 183.190,325.381 181.210,325.051 180.000 C 324.139 176.667,323.731 175.486,319.338 163.495 C 317.501 158.479,317.367 158.457,317.079 163.113 " stroke="none" fill="#fad547" fill-rule="evenodd"></path><path id="path1" d="M155.000 98.464 C 151.920 99.127,148.770 99.817,148.000 99.997 C 143.177 101.125,131.153 104.504,129.481 105.202 C 128.996 105.405,126.350 106.372,123.600 107.351 C 117.918 109.375,114.748 110.584,112.979 111.400 C 112.307 111.709,110.585 112.489,109.151 113.132 C 106.205 114.454,105.533 115.203,101.545 121.600 C 95.501 131.296,88.671 144.004,85.206 152.000 C 84.491 153.650,83.567 155.765,83.153 156.700 C 81.255 160.985,80.846 161.975,79.888 164.600 C 71.517 187.543,68.430 201.140,65.950 226.000 C 65.281 232.708,65.305 256.643,65.988 263.319 L 66.511 268.439 68.756 270.159 C 71.069 271.932,81.403 278.750,82.297 279.093 C 82.691 279.244,82.801 277.516,82.803 271.143 C 82.808 258.169,84.676 246.863,88.079 239.200 C 96.204 220.906,108.753 210.463,126.800 206.977 C 131.325 206.103,131.459 206.021,131.817 203.899 C 132.980 197.018,138.459 189.199,144.298 186.086 C 158.774 178.371,175.018 186.813,178.965 204.104 L 179.217 205.207 200.053 205.104 L 220.889 205.000 221.769 202.000 C 228.636 178.576,258.459 176.581,267.011 198.972 C 267.917 201.346,268.400 201.334,273.804 198.798 C 289.196 191.575,298.883 179.104,302.078 162.400 C 302.757 158.854,302.913 155.981,303.082 143.960 L 303.282 129.720 301.580 126.960 C 300.645 125.442,299.456 123.480,298.940 122.600 C 298.423 121.720,296.966 119.495,295.700 117.657 L 293.400 114.313 289.400 112.534 C 284.855 110.511,273.662 106.296,267.995 104.471 C 257.985 101.249,239.544 96.939,238.115 97.488 C 237.548 97.705,231.200 110.276,231.200 111.182 C 231.200 111.572,230.721 111.642,229.300 111.460 C 208.968 108.844,188.270 108.840,170.901 111.450 L 169.202 111.705 168.166 109.353 C 165.972 104.376,162.565 98.001,161.834 97.506 C 161.249 97.110,161.356 97.095,155.000 98.464 " stroke="none" fill="#3470a0" fill-rule="evenodd"></path><path id="path2" d="M179.202 0.276 C 177.333 0.364,175.632 0.608,175.422 0.818 C 175.212 1.028,173.726 1.200,172.120 1.200 C 170.440 1.200,169.200 1.370,169.200 1.600 C 169.200 1.822,168.133 2.000,166.800 2.000 C 165.467 2.000,164.400 2.178,164.400 2.400 C 164.400 2.620,163.489 2.800,162.376 2.800 C 161.129 2.800,160.448 2.953,160.600 3.200 C 160.752 3.447,160.071 3.600,158.824 3.600 C 157.711 3.600,156.800 3.780,156.800 4.000 C 156.800 4.220,156.001 4.400,155.024 4.400 C 154.047 4.400,153.136 4.580,153.000 4.800 C 152.864 5.020,151.998 5.203,151.076 5.206 C 149.847 5.211,149.560 5.316,150.000 5.600 C 150.439 5.884,150.145 5.989,148.900 5.994 C 147.813 5.998,147.198 6.180,147.194 6.500 C 147.190 6.833,147.058 6.800,146.800 6.400 C 146.542 6.000,146.410 5.967,146.406 6.300 C 146.403 6.590,145.885 6.800,145.176 6.800 C 144.463 6.800,144.056 6.967,144.200 7.200 C 144.347 7.438,143.879 7.600,143.047 7.600 C 142.277 7.600,141.536 7.780,141.400 8.000 C 141.264 8.220,140.623 8.400,139.976 8.400 C 139.329 8.400,138.800 8.574,138.800 8.787 C 138.800 9.001,138.512 9.064,138.160 8.929 C 137.807 8.794,137.392 8.889,137.237 9.140 C 137.082 9.391,136.470 9.636,135.878 9.685 C 135.285 9.734,134.800 9.915,134.800 10.087 C 134.800 10.259,134.181 10.400,133.424 10.400 C 132.667 10.400,131.936 10.580,131.800 10.800 C 131.664 11.020,131.203 11.200,130.776 11.200 C 130.349 11.200,130.000 11.380,130.000 11.600 C 130.000 11.820,129.561 12.000,129.024 12.000 C 128.487 12.000,127.936 12.180,127.800 12.400 C 127.664 12.620,127.103 12.800,126.553 12.800 C 125.988 12.800,125.660 12.974,125.800 13.200 C 125.936 13.420,125.687 13.600,125.247 13.600 C 124.807 13.600,124.336 13.780,124.200 14.000 C 124.064 14.220,123.503 14.400,122.953 14.400 C 122.388 14.400,122.060 14.574,122.200 14.800 C 122.406 15.133,121.613 15.309,120.545 15.166 C 120.404 15.147,120.179 15.282,120.045 15.466 C 119.656 15.997,118.068 16.800,117.405 16.800 C 117.072 16.800,116.800 16.980,116.800 17.200 C 116.800 17.420,116.384 17.600,115.875 17.600 C 115.367 17.600,114.595 17.915,114.160 18.300 C 113.725 18.685,113.107 19.059,112.788 19.132 C 112.469 19.205,112.074 19.475,111.910 19.732 C 111.746 19.989,111.609 20.060,111.606 19.890 C 111.597 19.435,109.200 20.750,109.200 21.210 C 109.200 21.425,108.840 21.600,108.400 21.600 C 107.960 21.600,107.600 21.780,107.600 22.000 C 107.600 22.220,107.240 22.400,106.800 22.400 C 106.360 22.400,106.000 22.580,106.000 22.800 C 106.000 23.020,105.640 23.200,105.200 23.200 C 104.760 23.200,104.400 23.380,104.400 23.600 C 104.400 23.820,104.040 24.000,103.600 24.000 C 103.160 24.000,102.800 24.180,102.800 24.400 C 102.800 24.620,102.453 24.800,102.029 24.800 C 101.604 24.800,100.994 25.064,100.671 25.386 C 100.349 25.708,99.846 26.023,99.552 26.086 C 99.259 26.149,98.775 26.427,98.477 26.704 C 98.179 26.981,97.770 27.105,97.568 26.980 C 97.365 26.855,97.200 26.943,97.200 27.176 C 97.200 27.409,96.930 27.600,96.600 27.600 C 96.270 27.600,96.000 27.780,96.000 28.000 C 96.000 28.220,95.730 28.400,95.400 28.400 C 95.070 28.400,94.800 28.580,94.800 28.800 C 94.800 29.020,94.552 29.200,94.249 29.200 C 93.946 29.200,93.476 29.468,93.204 29.796 C 92.932 30.123,92.583 30.313,92.428 30.217 C 92.273 30.121,91.893 30.393,91.585 30.821 C 91.276 31.250,90.743 31.600,90.400 31.600 C 90.057 31.600,89.517 31.960,89.200 32.400 C 88.883 32.840,88.375 33.200,88.072 33.200 C 87.769 33.200,87.017 33.740,86.400 34.400 C 85.783 35.060,85.031 35.600,84.728 35.600 C 84.425 35.600,83.924 35.950,83.615 36.379 C 83.307 36.807,82.937 37.084,82.793 36.995 C 82.649 36.906,81.903 37.411,81.135 38.117 C 80.367 38.823,79.505 39.452,79.220 39.516 C 78.668 39.640,77.236 41.199,77.213 41.700 C 77.206 41.865,76.846 42.000,76.413 42.000 C 75.981 42.000,74.997 42.630,74.227 43.400 C 73.457 44.170,72.627 44.800,72.382 44.800 C 72.137 44.800,71.269 45.475,70.452 46.300 C 69.635 47.125,68.614 48.008,68.184 48.263 C 67.753 48.517,67.449 48.936,67.510 49.193 C 67.570 49.449,67.451 49.555,67.244 49.427 C 67.037 49.299,64.966 51.131,62.640 53.497 C 57.557 58.670,58.670 57.557,53.497 62.640 C 51.131 64.966,49.299 67.037,49.427 67.244 C 49.555 67.451,49.449 67.570,49.193 67.510 C 48.936 67.449,48.517 67.753,48.263 68.184 C 48.008 68.614,47.125 69.635,46.300 70.452 C 45.475 71.269,44.800 72.137,44.800 72.382 C 44.800 72.627,44.170 73.457,43.400 74.227 C 42.630 74.997,42.000 75.981,42.000 76.413 C 42.000 76.846,41.865 77.206,41.700 77.213 C 41.199 77.236,39.640 78.668,39.516 79.220 C 39.452 79.505,38.823 80.367,38.117 81.135 C 37.411 81.903,36.906 82.649,36.995 82.793 C 37.084 82.937,36.807 83.307,36.379 83.615 C 35.950 83.924,35.600 84.425,35.600 84.728 C 35.600 85.031,35.060 85.783,34.400 86.400 C 33.740 87.017,33.200 87.769,33.200 88.072 C 33.200 88.375,32.840 88.883,32.400 89.200 C 31.960 89.517,31.600 90.057,31.600 90.400 C 31.600 90.743,31.250 91.276,30.821 91.585 C 30.393 91.893,30.121 92.273,30.217 92.428 C 30.313 92.583,30.123 92.932,29.796 93.204 C 29.468 93.476,29.200 93.946,29.200 94.249 C 29.200 94.552,29.020 94.800,28.800 94.800 C 28.580 94.800,28.400 95.070,28.400 95.400 C 28.400 95.730,28.220 96.000,28.000 96.000 C 27.780 96.000,27.600 96.270,27.600 96.600 C 27.600 96.930,27.409 97.200,27.176 97.200 C 26.943 97.200,26.855 97.365,26.980 97.568 C 27.105 97.770,26.981 98.179,26.704 98.477 C 26.427 98.775,26.149 99.259,26.086 99.552 C 26.023 99.846,25.708 100.349,25.386 100.671 C 25.064 100.994,24.800 101.604,24.800 102.029 C 24.800 102.453,24.620 102.800,24.400 102.800 C 24.180 102.800,24.000 103.160,24.000 103.600 C 24.000 104.040,23.820 104.400,23.600 104.400 C 23.380 104.400,23.200 104.760,23.200 105.200 C 23.200 105.640,23.020 106.000,22.800 106.000 C 22.580 106.000,22.400 106.360,22.400 106.800 C 22.400 107.240,22.220 107.600,22.000 107.600 C 21.780 107.600,21.600 107.960,21.600 108.400 C 21.600 108.840,21.425 109.200,21.210 109.200 C 20.750 109.200,19.435 111.597,19.890 111.606 C 20.060 111.609,19.989 111.746,19.732 111.910 C 19.475 112.074,19.205 112.469,19.132 112.788 C 19.059 113.107,18.685 113.725,18.300 114.160 C 17.915 114.595,17.600 115.367,17.600 115.875 C 17.600 116.384,17.420 116.800,17.200 116.800 C 16.980 116.800,16.800 117.034,16.800 117.320 C 16.800 118.056,15.859 119.993,15.500 119.997 C 15.335 119.999,15.200 120.551,15.200 121.224 C 15.200 121.937,15.033 122.344,14.800 122.200 C 14.574 122.060,14.400 122.388,14.400 122.953 C 14.400 123.503,14.220 124.064,14.000 124.200 C 13.780 124.336,13.600 124.807,13.600 125.247 C 13.600 125.687,13.420 125.936,13.200 125.800 C 12.974 125.660,12.800 125.988,12.800 126.553 C 12.800 127.103,12.620 127.664,12.400 127.800 C 12.180 127.936,12.000 128.472,12.000 128.990 C 12.000 129.509,11.822 129.993,11.603 130.067 C 11.385 130.140,11.166 130.695,11.116 131.300 C 11.066 131.905,10.885 132.400,10.713 132.400 C 10.541 132.400,10.400 132.940,10.400 133.600 C 10.400 134.260,10.259 134.800,10.087 134.800 C 9.915 134.800,9.734 135.285,9.685 135.878 C 9.636 136.470,9.391 137.082,9.140 137.237 C 8.889 137.392,8.794 137.807,8.929 138.160 C 9.064 138.512,9.001 138.800,8.787 138.800 C 8.574 138.800,8.400 139.329,8.400 139.976 C 8.400 140.623,8.220 141.264,8.000 141.400 C 7.780 141.536,7.600 142.277,7.600 143.047 C 7.600 143.879,7.438 144.347,7.200 144.200 C 6.967 144.056,6.800 144.463,6.800 145.176 C 6.800 145.885,6.590 146.403,6.300 146.406 C 5.967 146.410,6.000 146.542,6.400 146.800 C 6.800 147.058,6.833 147.190,6.500 147.194 C 6.180 147.198,5.998 147.813,5.994 148.900 C 5.989 150.145,5.884 150.439,5.600 150.000 C 5.316 149.560,5.211 149.847,5.206 151.076 C 5.203 151.998,5.020 152.864,4.800 153.000 C 4.580 153.136,4.400 154.047,4.400 155.024 C 4.400 156.001,4.220 156.800,4.000 156.800 C 3.780 156.800,3.600 157.711,3.600 158.824 C 3.600 160.071,3.447 160.752,3.200 160.600 C 2.953 160.448,2.800 161.129,2.800 162.376 C 2.800 163.489,2.620 164.400,2.400 164.400 C 2.178 164.400,2.000 165.467,2.000 166.800 C 2.000 168.133,1.822 169.200,1.600 169.200 C 1.370 169.200,1.200 170.440,1.200 172.120 C 1.200 173.923,1.009 175.231,0.700 175.540 C -0.030 176.271,-0.030 224.457,0.700 224.700 C 1.040 224.813,1.200 225.816,1.200 227.833 C 1.200 229.544,1.369 230.800,1.600 230.800 C 1.822 230.800,2.000 231.867,2.000 233.200 C 2.000 234.533,2.178 235.600,2.400 235.600 C 2.620 235.600,2.800 236.410,2.800 237.400 C 2.800 238.390,2.980 239.200,3.200 239.200 C 3.420 239.200,3.600 240.100,3.600 241.200 C 3.600 242.300,3.780 243.200,4.000 243.200 C 4.220 243.200,4.400 243.999,4.400 244.976 C 4.400 245.953,4.580 246.864,4.800 247.000 C 5.020 247.136,5.200 247.957,5.200 248.824 C 5.200 249.691,5.380 250.400,5.600 250.400 C 5.820 250.400,6.000 250.940,6.000 251.600 C 6.000 252.290,6.212 252.803,6.500 252.806 C 6.833 252.810,6.800 252.942,6.400 253.200 C 6.000 253.458,5.967 253.590,6.300 253.594 C 6.590 253.597,6.800 254.115,6.800 254.824 C 6.800 255.537,6.967 255.944,7.200 255.800 C 7.438 255.653,7.600 256.121,7.600 256.953 C 7.600 257.723,7.780 258.464,8.000 258.600 C 8.220 258.736,8.400 259.377,8.400 260.024 C 8.400 260.671,8.535 261.200,8.700 261.200 C 8.865 261.200,9.034 261.605,9.076 262.100 C 9.230 263.904,9.699 265.600,10.045 265.600 C 10.240 265.600,10.400 266.129,10.400 266.776 C 10.400 267.423,10.580 268.064,10.800 268.200 C 11.020 268.336,11.200 268.797,11.200 269.224 C 11.200 269.651,11.336 270.000,11.503 270.000 C 11.839 270.000,12.800 272.829,12.800 273.817 C 12.800 274.164,12.980 274.336,13.200 274.200 C 13.427 274.060,13.600 274.396,13.600 274.976 C 13.600 275.539,13.780 276.000,14.000 276.000 C 14.220 276.000,14.400 276.461,14.400 277.024 C 14.400 277.604,14.573 277.940,14.800 277.800 C 15.033 277.656,15.200 278.063,15.200 278.776 C 15.200 279.449,15.335 280.001,15.500 280.003 C 15.889 280.007,16.800 281.970,16.800 282.804 C 16.800 283.159,17.115 283.805,17.500 284.240 C 18.193 285.024,18.487 285.734,18.518 286.700 C 18.526 286.975,18.683 287.200,18.867 287.200 C 19.050 287.200,19.200 287.560,19.200 288.000 C 19.200 288.440,19.335 288.800,19.500 288.801 C 19.665 288.801,20.430 289.971,21.200 291.400 C 21.970 292.829,22.735 293.999,22.900 293.999 C 23.065 294.000,23.200 294.360,23.200 294.800 C 23.200 295.240,23.380 295.600,23.600 295.600 C 23.820 295.600,24.000 295.960,24.000 296.400 C 24.000 296.840,24.180 297.200,24.400 297.200 C 24.620 297.200,24.800 297.536,24.800 297.946 C 24.800 298.356,25.173 299.166,25.629 299.746 C 26.085 300.326,26.342 300.800,26.200 300.800 C 26.059 300.800,26.227 301.085,26.575 301.432 C 26.923 301.780,27.105 302.230,26.980 302.432 C 26.855 302.635,26.943 302.800,27.176 302.800 C 27.409 302.800,27.600 303.070,27.600 303.400 C 27.600 303.730,27.780 304.000,28.000 304.000 C 28.220 304.000,28.400 304.270,28.400 304.600 C 28.400 304.930,28.580 305.200,28.800 305.200 C 29.020 305.200,29.200 305.448,29.200 305.751 C 29.200 306.054,29.468 306.524,29.796 306.796 C 30.123 307.068,30.313 307.417,30.217 307.572 C 30.121 307.727,30.393 308.107,30.821 308.415 C 31.250 308.724,31.600 309.231,31.600 309.541 C 31.600 309.852,31.916 310.397,32.303 310.753 C 32.689 311.109,33.260 311.895,33.570 312.500 C 33.881 313.105,34.285 313.600,34.468 313.600 C 34.650 313.600,34.800 313.888,34.800 314.240 C 34.800 314.591,35.340 315.383,36.000 316.000 C 36.660 316.617,37.200 317.285,37.200 317.485 C 37.200 317.685,37.556 318.231,37.991 318.699 C 38.427 319.166,38.832 319.780,38.891 320.065 C 38.951 320.349,39.675 321.247,40.500 322.059 C 41.325 322.872,42.000 323.733,42.000 323.971 C 42.000 324.210,42.450 324.797,43.000 325.275 C 43.550 325.753,44.000 326.382,44.000 326.672 C 44.000 326.962,44.180 327.200,44.400 327.200 C 44.620 327.200,44.800 327.394,44.800 327.631 C 44.800 327.869,45.520 328.754,46.400 329.600 C 47.280 330.446,48.000 331.325,48.000 331.555 C 48.000 331.784,48.360 332.165,48.800 332.400 C 49.240 332.635,49.600 332.998,49.600 333.206 C 49.600 333.413,51.445 335.389,53.700 337.596 C 58.630 342.422,57.578 341.370,62.404 346.300 C 64.611 348.555,66.587 350.400,66.794 350.400 C 67.002 350.400,67.365 350.760,67.600 351.200 C 67.835 351.640,68.216 352.000,68.445 352.000 C 68.675 352.000,69.576 352.720,70.447 353.600 C 71.318 354.480,72.204 355.200,72.415 355.200 C 72.627 355.200,72.800 355.380,72.800 355.600 C 72.800 355.820,73.038 356.000,73.328 356.000 C 73.618 356.000,74.247 356.450,74.725 357.000 C 75.203 357.550,75.790 358.000,76.029 358.000 C 76.267 358.000,77.128 358.675,77.941 359.500 C 78.753 360.325,79.673 361.056,79.984 361.125 C 80.295 361.194,80.852 361.599,81.222 362.025 C 81.591 362.451,82.116 362.800,82.386 362.800 C 82.657 362.800,83.383 363.340,84.000 364.000 C 84.617 364.660,85.409 365.200,85.760 365.200 C 86.112 365.200,86.400 365.350,86.400 365.532 C 86.400 365.715,86.895 366.120,87.500 366.432 C 88.105 366.745,88.949 367.315,89.375 367.700 C 89.802 368.085,90.321 368.400,90.529 368.400 C 90.736 368.400,91.197 368.718,91.553 369.107 C 91.909 369.496,93.055 370.244,94.100 370.770 C 95.145 371.296,96.000 371.877,96.000 372.063 C 96.000 372.248,96.270 372.400,96.600 372.400 C 96.930 372.400,97.200 372.591,97.200 372.824 C 97.200 373.057,97.365 373.145,97.568 373.020 C 97.770 372.895,98.220 373.077,98.568 373.425 C 98.915 373.773,99.200 373.941,99.200 373.800 C 99.200 373.659,99.492 373.835,99.848 374.191 C 100.205 374.548,101.015 374.943,101.648 375.070 C 102.282 375.196,102.800 375.457,102.800 375.650 C 102.800 375.842,103.160 376.000,103.600 376.000 C 104.040 376.000,104.403 376.135,104.406 376.300 C 104.410 376.465,105.310 377.040,106.406 377.579 C 107.503 378.117,108.400 378.668,108.400 378.804 C 108.400 378.940,109.030 379.298,109.800 379.600 C 110.570 379.902,111.200 380.296,111.200 380.475 C 111.200 380.654,111.560 380.800,112.000 380.800 C 112.440 380.800,112.800 380.950,112.800 381.133 C 112.800 381.317,113.025 381.474,113.300 381.482 C 114.266 381.513,114.976 381.807,115.760 382.500 C 116.195 382.885,116.967 383.200,117.475 383.200 C 117.984 383.200,118.400 383.380,118.400 383.600 C 118.400 383.820,118.749 384.000,119.176 384.000 C 119.603 384.000,120.064 384.180,120.200 384.400 C 120.336 384.620,120.887 384.800,121.424 384.800 C 121.961 384.800,122.400 384.980,122.400 385.200 C 122.400 385.420,122.760 385.600,123.200 385.600 C 123.640 385.600,124.000 385.780,124.000 386.000 C 124.000 386.220,124.360 386.400,124.800 386.400 C 125.240 386.400,125.600 386.541,125.600 386.713 C 125.600 386.885,126.087 387.066,126.682 387.115 C 127.278 387.164,127.944 387.384,128.162 387.602 C 128.381 387.821,128.884 388.000,129.280 388.000 C 129.676 388.000,130.000 388.180,130.000 388.400 C 130.000 388.620,130.330 388.800,130.733 388.800 C 131.137 388.800,131.592 388.925,131.745 389.078 C 131.898 389.231,132.325 389.401,132.694 389.455 C 133.064 389.509,133.733 389.730,134.183 389.946 C 135.060 390.366,137.100 390.940,137.872 390.984 C 138.131 390.998,138.476 391.143,138.638 391.305 C 138.801 391.467,139.623 391.600,140.467 391.600 C 141.310 391.600,142.000 391.780,142.000 392.000 C 142.000 392.220,142.450 392.400,143.000 392.400 C 143.550 392.400,144.000 392.580,144.000 392.800 C 144.000 393.020,144.720 393.200,145.600 393.200 C 146.480 393.200,147.200 393.380,147.200 393.600 C 147.200 393.820,147.729 394.000,148.376 394.000 C 149.023 394.000,149.664 394.180,149.800 394.400 C 149.936 394.620,150.656 394.800,151.400 394.800 C 152.144 394.800,152.864 394.980,153.000 395.200 C 153.136 395.420,154.047 395.600,155.024 395.600 C 156.001 395.600,156.800 395.780,156.800 396.000 C 156.800 396.220,157.700 396.400,158.800 396.400 C 159.900 396.400,160.800 396.580,160.800 396.800 C 160.800 397.020,161.531 397.200,162.424 397.200 C 163.317 397.200,163.961 397.340,163.855 397.511 C 163.750 397.681,164.864 397.874,166.332 397.938 C 167.799 398.003,169.060 398.223,169.133 398.428 C 169.207 398.632,170.476 398.800,171.953 398.800 C 173.569 398.800,174.839 398.999,175.140 399.300 C 175.529 399.689,181.045 399.800,200.000 399.800 C 218.955 399.800,224.471 399.689,224.860 399.300 C 225.161 398.999,226.431 398.800,228.047 398.800 C 229.524 398.800,230.793 398.632,230.867 398.428 C 230.940 398.223,232.201 398.003,233.668 397.938 C 235.136 397.874,236.250 397.681,236.145 397.511 C 236.039 397.340,236.683 397.200,237.576 397.200 C 238.469 397.200,239.200 397.020,239.200 396.800 C 239.200 396.580,240.100 396.400,241.200 396.400 C 242.300 396.400,243.200 396.220,243.200 396.000 C 243.200 395.780,243.999 395.600,244.976 395.600 C 245.953 395.600,246.864 395.420,247.000 395.200 C 247.136 394.980,247.856 394.800,248.600 394.800 C 249.344 394.800,250.064 394.620,250.200 394.400 C 250.336 394.180,250.977 394.000,251.624 394.000 C 252.271 394.000,252.800 393.820,252.800 393.600 C 252.800 393.380,253.520 393.200,254.400 393.200 C 255.280 393.200,256.000 393.020,256.000 392.800 C 256.000 392.580,256.450 392.400,257.000 392.400 C 257.550 392.400,258.000 392.220,258.000 392.000 C 258.000 391.780,258.690 391.600,259.533 391.600 C 260.377 391.600,261.199 391.467,261.362 391.305 C 261.524 391.143,261.869 390.998,262.128 390.984 C 262.900 390.940,264.940 390.366,265.817 389.946 C 266.267 389.730,266.936 389.509,267.306 389.455 C 267.675 389.401,268.102 389.231,268.255 389.078 C 268.408 388.925,268.863 388.800,269.267 388.800 C 269.670 388.800,270.000 388.620,270.000 388.400 C 270.000 388.180,270.324 388.000,270.720 388.000 C 271.116 388.000,271.619 387.821,271.838 387.602 C 272.056 387.384,272.722 387.164,273.318 387.115 C 273.913 387.066,274.400 386.885,274.400 386.713 C 274.400 386.541,274.760 386.400,275.200 386.400 C 275.640 386.400,276.000 386.220,276.000 386.000 C 276.000 385.780,276.360 385.600,276.800 385.600 C 277.240 385.600,277.600 385.420,277.600 385.200 C 277.600 384.980,278.039 384.800,278.576 384.800 C 279.113 384.800,279.664 384.620,279.800 384.400 C 279.936 384.180,280.397 384.000,280.824 384.000 C 281.251 384.000,281.600 383.820,281.600 383.600 C 281.600 383.380,282.005 383.194,282.500 383.187 C 282.995 383.180,283.742 382.916,284.159 382.600 C 284.576 382.284,285.099 382.138,285.321 382.275 C 285.549 382.416,285.600 382.324,285.438 382.062 C 285.185 381.653,285.918 381.398,286.900 381.553 C 287.065 381.579,287.200 381.420,287.200 381.200 C 287.200 380.980,287.560 380.800,288.000 380.800 C 288.440 380.800,288.800 380.654,288.800 380.475 C 288.800 380.296,289.430 379.902,290.200 379.600 C 290.970 379.298,291.600 378.940,291.600 378.804 C 291.600 378.668,292.497 378.117,293.594 377.579 C 294.690 377.040,295.590 376.465,295.594 376.300 C 295.597 376.135,295.960 376.000,296.400 376.000 C 296.840 376.000,297.200 375.843,297.200 375.650 C 297.200 375.458,297.718 375.196,298.352 375.070 C 298.985 374.943,299.774 374.569,300.104 374.239 C 300.434 373.908,300.816 373.750,300.952 373.886 C 301.089 374.022,301.200 373.913,301.200 373.643 C 301.200 373.373,301.365 373.255,301.568 373.380 C 301.770 373.505,302.207 373.336,302.539 373.004 C 302.871 372.672,303.336 372.400,303.571 372.400 C 303.807 372.400,304.000 372.248,304.000 372.063 C 304.000 371.877,304.855 371.296,305.900 370.770 C 306.945 370.244,308.070 369.539,308.400 369.204 C 308.730 368.869,309.495 368.340,310.100 368.030 C 310.705 367.719,311.200 367.315,311.200 367.132 C 311.200 366.950,311.436 366.800,311.725 366.800 C 312.013 366.800,312.636 366.440,313.108 366.000 C 313.580 365.560,314.172 365.200,314.423 365.200 C 314.674 365.200,315.383 364.660,316.000 364.000 C 316.617 363.340,317.369 362.800,317.672 362.800 C 317.975 362.800,318.483 362.440,318.800 362.000 C 319.117 361.560,319.591 361.200,319.854 361.200 C 320.117 361.200,321.022 360.572,321.866 359.804 C 324.370 357.524,324.800 357.185,324.800 357.489 C 324.800 357.648,325.080 357.378,325.423 356.889 C 325.765 356.400,326.305 356.000,326.623 356.000 C 326.940 356.000,327.200 355.820,327.200 355.600 C 327.200 355.380,327.373 355.200,327.585 355.200 C 327.796 355.200,328.682 354.480,329.553 353.600 C 330.424 352.720,331.342 352.000,331.592 352.000 C 331.842 352.000,331.953 351.847,331.837 351.660 C 331.722 351.473,332.107 351.068,332.694 350.760 C 333.280 350.452,335.479 348.452,337.580 346.316 C 342.220 341.598,341.598 342.220,346.316 337.580 C 348.452 335.479,350.452 333.280,350.760 332.694 C 351.068 332.107,351.473 331.722,351.660 331.837 C 351.847 331.953,352.000 331.842,352.000 331.592 C 352.000 331.342,352.720 330.424,353.600 329.553 C 354.480 328.682,355.200 327.796,355.200 327.585 C 355.200 327.373,355.380 327.200,355.600 327.200 C 355.820 327.200,356.000 326.940,356.000 326.623 C 356.000 326.305,356.400 325.765,356.889 325.423 C 357.378 325.080,357.648 324.800,357.489 324.800 C 357.185 324.800,357.524 324.370,359.804 321.866 C 360.572 321.022,361.200 320.117,361.200 319.854 C 361.200 319.591,361.560 319.117,362.000 318.800 C 362.440 318.483,362.800 317.975,362.800 317.672 C 362.800 317.369,363.340 316.617,364.000 316.000 C 364.660 315.383,365.200 314.591,365.200 314.240 C 365.200 313.888,365.350 313.600,365.532 313.600 C 365.715 313.600,366.120 313.105,366.432 312.500 C 366.745 311.895,367.315 311.051,367.700 310.625 C 368.085 310.198,368.400 309.679,368.400 309.471 C 368.400 309.264,368.718 308.803,369.107 308.447 C 369.496 308.091,370.244 306.945,370.770 305.900 C 371.296 304.855,371.877 304.000,372.063 304.000 C 372.248 304.000,372.400 303.807,372.400 303.571 C 372.400 303.336,372.672 302.871,373.004 302.539 C 373.336 302.207,373.505 301.770,373.380 301.568 C 373.255 301.365,373.373 301.200,373.643 301.200 C 373.913 301.200,374.022 301.089,373.886 300.952 C 373.750 300.816,373.908 300.434,374.239 300.104 C 374.569 299.774,374.943 298.985,375.070 298.352 C 375.196 297.718,375.458 297.200,375.650 297.200 C 375.843 297.200,376.000 296.840,376.000 296.400 C 376.000 295.960,376.135 295.597,376.300 295.594 C 376.465 295.590,377.040 294.690,377.579 293.594 C 378.117 292.497,378.668 291.600,378.804 291.600 C 378.940 291.600,379.298 290.970,379.600 290.200 C 379.902 289.430,380.296 288.800,380.475 288.800 C 380.654 288.800,380.800 288.440,380.800 288.000 C 380.800 287.560,380.980 287.200,381.200 287.200 C 381.420 287.200,381.579 287.065,381.553 286.900 C 381.398 285.918,381.653 285.185,382.062 285.438 C 382.324 285.600,382.416 285.549,382.275 285.321 C 382.138 285.099,382.284 284.576,382.600 284.159 C 382.916 283.742,383.180 282.995,383.187 282.500 C 383.194 282.005,383.380 281.600,383.600 281.600 C 383.820 281.600,384.000 281.251,384.000 280.824 C 384.000 280.397,384.180 279.936,384.400 279.800 C 384.620 279.664,384.800 279.113,384.800 278.576 C 384.800 278.039,384.980 277.600,385.200 277.600 C 385.420 277.600,385.600 277.240,385.600 276.800 C 385.600 276.360,385.780 276.000,386.000 276.000 C 386.220 276.000,386.400 275.640,386.400 275.200 C 386.400 274.760,386.541 274.400,386.713 274.400 C 386.885 274.400,387.066 273.913,387.115 273.318 C 387.164 272.722,387.384 272.056,387.602 271.838 C 387.821 271.619,388.000 271.116,388.000 270.720 C 388.000 270.324,388.180 270.000,388.400 270.000 C 388.620 270.000,388.800 269.670,388.800 269.267 C 388.800 268.863,388.925 268.408,389.078 268.255 C 389.231 268.102,389.401 267.675,389.455 267.306 C 389.509 266.936,389.730 266.267,389.946 265.817 C 390.366 264.940,390.940 262.900,390.984 262.128 C 390.998 261.869,391.143 261.524,391.305 261.362 C 391.467 261.199,391.600 260.377,391.600 259.533 C 391.600 258.690,391.780 258.000,392.000 258.000 C 392.220 258.000,392.400 257.550,392.400 257.000 C 392.400 256.450,392.580 256.000,392.800 256.000 C 393.020 256.000,393.200 255.280,393.200 254.400 C 393.200 253.520,393.380 252.800,393.600 252.800 C 393.820 252.800,394.000 252.271,394.000 251.624 C 394.000 250.977,394.180 250.336,394.400 250.200 C 394.620 250.064,394.800 249.344,394.800 248.600 C 394.800 247.856,394.980 247.136,395.200 247.000 C 395.420 246.864,395.600 245.953,395.600 244.976 C 395.600 243.999,395.780 243.200,396.000 243.200 C 396.220 243.200,396.400 242.300,396.400 241.200 C 396.400 240.100,396.580 239.200,396.800 239.200 C 397.020 239.200,397.200 238.469,397.200 237.576 C 397.200 236.683,397.340 236.039,397.511 236.145 C 397.681 236.250,397.874 235.136,397.938 233.668 C 398.003 232.201,398.223 230.940,398.428 230.867 C 398.632 230.793,398.800 229.524,398.800 228.047 C 398.800 226.431,398.999 225.161,399.300 224.860 C 400.029 224.131,400.029 175.869,399.300 175.140 C 399.007 174.847,398.800 173.607,398.800 172.144 C 398.800 170.771,398.620 169.536,398.400 169.400 C 398.180 169.264,398.000 168.073,398.000 166.753 C 398.000 165.433,397.849 164.446,397.664 164.560 C 397.480 164.674,397.297 163.920,397.258 162.884 C 397.219 161.848,397.010 160.940,396.794 160.867 C 396.577 160.793,396.400 159.848,396.400 158.767 C 396.400 157.685,396.220 156.800,396.000 156.800 C 395.780 156.800,395.600 156.001,395.600 155.024 C 395.600 154.047,395.420 153.136,395.200 153.000 C 394.980 152.864,394.800 152.043,394.800 151.176 C 394.800 150.309,394.620 149.600,394.400 149.600 C 394.180 149.600,394.000 149.060,394.000 148.400 C 394.000 147.740,393.820 147.200,393.600 147.200 C 393.380 147.200,393.200 146.469,393.200 145.576 C 393.200 144.596,393.042 144.051,392.800 144.200 C 392.567 144.344,392.400 143.937,392.400 143.224 C 392.400 142.551,392.220 142.000,392.000 142.000 C 391.780 142.000,391.592 141.325,391.582 140.500 C 391.573 139.675,391.305 138.280,390.988 137.400 C 390.671 136.520,390.409 135.485,390.406 135.100 C 390.403 134.715,390.220 134.400,390.000 134.400 C 389.780 134.400,389.600 133.871,389.600 133.224 C 389.600 132.577,389.420 131.936,389.200 131.800 C 388.980 131.664,388.800 131.203,388.800 130.776 C 388.800 130.349,388.659 130.000,388.487 130.000 C 388.161 130.000,386.962 126.423,387.113 125.900 C 387.161 125.735,387.020 125.600,386.800 125.600 C 386.580 125.600,386.400 125.240,386.400 124.800 C 386.400 124.360,386.220 124.000,386.000 124.000 C 385.780 124.000,385.600 123.640,385.600 123.200 C 385.600 122.760,385.420 122.400,385.200 122.400 C 384.980 122.400,384.800 121.860,384.800 121.200 C 384.800 120.540,384.620 120.000,384.400 120.000 C 384.180 120.000,384.000 119.640,384.000 119.200 C 384.000 118.760,383.820 118.400,383.600 118.400 C 383.380 118.400,383.200 117.984,383.200 117.475 C 383.200 116.967,382.885 116.195,382.500 115.760 C 381.807 114.976,381.513 114.266,381.482 113.300 C 381.474 113.025,381.317 112.800,381.133 112.800 C 380.950 112.800,380.800 112.440,380.800 112.000 C 380.800 111.560,380.665 111.200,380.500 111.199 C 380.335 111.199,379.570 110.029,378.800 108.600 C 378.030 107.171,377.265 106.001,377.100 106.001 C 376.935 106.000,376.800 105.640,376.800 105.200 C 376.800 104.760,376.620 104.400,376.400 104.400 C 376.180 104.400,376.000 104.040,376.000 103.600 C 376.000 103.160,375.820 102.800,375.600 102.800 C 375.380 102.800,375.200 102.464,375.200 102.054 C 375.200 101.644,374.827 100.834,374.371 100.254 C 373.915 99.674,373.658 99.200,373.800 99.200 C 373.941 99.200,373.773 98.915,373.425 98.568 C 373.077 98.220,372.895 97.770,373.020 97.568 C 373.145 97.365,373.057 97.200,372.824 97.200 C 372.591 97.200,372.400 96.930,372.400 96.600 C 372.400 96.270,372.220 96.000,372.000 96.000 C 371.780 96.000,371.600 95.730,371.600 95.400 C 371.600 95.070,371.464 94.800,371.298 94.800 C 371.131 94.800,370.740 94.215,370.428 93.500 C 370.116 92.785,369.576 91.930,369.228 91.600 C 368.879 91.270,368.340 90.505,368.030 89.900 C 367.719 89.295,367.315 88.800,367.132 88.800 C 366.950 88.800,366.800 88.564,366.800 88.275 C 366.800 87.987,366.440 87.364,366.000 86.892 C 365.560 86.420,365.200 85.828,365.200 85.577 C 365.200 85.326,364.660 84.617,364.000 84.000 C 363.340 83.383,362.800 82.715,362.800 82.515 C 362.800 82.315,362.444 81.769,362.009 81.301 C 361.573 80.834,361.168 80.220,361.109 79.935 C 361.049 79.651,360.325 78.753,359.500 77.941 C 358.675 77.128,358.000 76.287,358.000 76.071 C 358.000 75.856,357.370 75.050,356.600 74.280 C 355.830 73.510,355.200 72.689,355.200 72.455 C 355.200 72.222,354.480 71.318,353.600 70.447 C 352.720 69.576,352.000 68.675,352.000 68.445 C 352.000 68.216,351.640 67.835,351.200 67.600 C 350.760 67.365,350.400 67.002,350.400 66.794 C 350.400 66.587,348.555 64.611,346.300 62.404 C 344.045 60.197,342.066 58.258,341.902 58.095 C 341.738 57.933,339.802 55.955,337.599 53.700 C 335.397 51.445,333.422 49.600,333.211 49.600 C 333.001 49.600,332.635 49.240,332.400 48.800 C 332.165 48.360,331.784 48.000,331.555 48.000 C 331.325 48.000,330.446 47.280,329.600 46.400 C 328.754 45.520,327.863 44.800,327.618 44.800 C 327.373 44.800,326.543 44.170,325.773 43.400 C 325.003 42.630,324.019 42.000,323.587 42.000 C 323.154 42.000,322.800 41.839,322.800 41.642 C 322.800 41.150,320.705 39.023,320.101 38.902 C 319.831 38.848,319.143 38.398,318.573 37.902 C 318.003 37.406,317.447 37.057,317.338 37.126 C 317.229 37.196,316.817 36.881,316.423 36.426 C 316.029 35.972,315.501 35.600,315.249 35.600 C 314.998 35.600,314.228 35.060,313.537 34.400 C 312.846 33.740,312.078 33.200,311.829 33.200 C 311.580 33.200,311.117 32.840,310.800 32.400 C 310.483 31.960,309.943 31.600,309.600 31.600 C 309.257 31.600,308.724 31.250,308.415 30.821 C 308.107 30.393,307.727 30.121,307.572 30.217 C 307.417 30.313,307.068 30.123,306.796 29.796 C 306.524 29.468,306.054 29.200,305.751 29.200 C 305.448 29.200,305.200 29.020,305.200 28.800 C 305.200 28.580,304.930 28.400,304.600 28.400 C 304.270 28.400,304.000 28.220,304.000 28.000 C 304.000 27.780,303.730 27.600,303.400 27.600 C 303.070 27.600,302.800 27.420,302.800 27.200 C 302.800 26.980,302.440 26.800,302.000 26.800 C 301.560 26.800,301.200 26.590,301.200 26.333 C 301.200 26.077,301.086 25.981,300.946 26.120 C 300.807 26.260,300.243 26.020,299.692 25.587 C 299.142 25.154,298.356 24.800,297.946 24.800 C 297.536 24.800,297.200 24.620,297.200 24.400 C 297.200 24.180,296.840 24.000,296.400 24.000 C 295.960 24.000,295.600 23.820,295.600 23.600 C 295.600 23.380,295.240 23.200,294.800 23.200 C 294.360 23.200,294.000 23.020,294.000 22.800 C 294.000 22.580,293.640 22.400,293.200 22.400 C 292.760 22.400,292.400 22.249,292.400 22.064 C 292.400 21.629,288.402 19.445,288.394 19.875 C 288.391 20.054,288.254 19.989,288.090 19.732 C 287.926 19.475,287.531 19.205,287.212 19.132 C 286.893 19.059,286.275 18.685,285.840 18.300 C 285.405 17.915,284.633 17.600,284.125 17.600 C 283.616 17.600,283.200 17.420,283.200 17.200 C 283.200 16.980,282.966 16.800,282.680 16.800 C 281.944 16.800,280.007 15.859,280.003 15.500 C 280.001 15.335,279.449 15.200,278.776 15.200 C 278.063 15.200,277.656 15.033,277.800 14.800 C 277.940 14.574,277.612 14.400,277.047 14.400 C 276.497 14.400,275.936 14.220,275.800 14.000 C 275.664 13.780,275.193 13.600,274.753 13.600 C 274.313 13.600,274.064 13.420,274.200 13.200 C 274.340 12.974,274.012 12.800,273.447 12.800 C 272.897 12.800,272.336 12.620,272.200 12.400 C 272.064 12.180,271.528 12.000,271.010 12.000 C 270.491 12.000,270.007 11.822,269.933 11.603 C 269.860 11.385,269.305 11.166,268.700 11.116 C 268.095 11.066,267.600 10.885,267.600 10.713 C 267.600 10.541,267.060 10.400,266.400 10.400 C 265.740 10.400,265.200 10.259,265.200 10.087 C 265.200 9.915,264.715 9.734,264.122 9.685 C 263.530 9.636,262.918 9.391,262.763 9.140 C 262.608 8.889,262.193 8.794,261.840 8.929 C 261.488 9.064,261.200 9.001,261.200 8.787 C 261.200 8.574,260.671 8.400,260.024 8.400 C 259.377 8.400,258.736 8.220,258.600 8.000 C 258.464 7.780,257.723 7.600,256.953 7.600 C 256.121 7.600,255.653 7.438,255.800 7.200 C 255.944 6.967,255.537 6.800,254.824 6.800 C 254.115 6.800,253.597 6.590,253.594 6.300 C 253.590 5.967,253.458 6.000,253.200 6.400 C 252.942 6.800,252.810 6.833,252.806 6.500 C 252.802 6.180,252.187 5.998,251.100 5.994 C 249.855 5.989,249.561 5.884,250.000 5.600 C 250.440 5.316,250.153 5.211,248.924 5.206 C 248.002 5.203,247.136 5.020,247.000 4.800 C 246.864 4.580,245.953 4.400,244.976 4.400 C 243.999 4.400,243.200 4.220,243.200 4.000 C 243.200 3.780,242.289 3.600,241.176 3.600 C 239.929 3.600,239.248 3.447,239.400 3.200 C 239.552 2.953,238.871 2.800,237.624 2.800 C 236.511 2.800,235.600 2.620,235.600 2.400 C 235.600 2.178,234.533 2.000,233.200 2.000 C 231.867 2.000,230.800 1.822,230.800 1.600 C 230.800 1.370,229.560 1.200,227.880 1.200 C 226.111 1.200,224.767 1.007,224.470 0.710 C 223.986 0.226,187.679 -0.123,179.202 0.276 M161.834 97.506 C 162.565 98.001,165.972 104.376,168.166 109.353 L 169.202 111.705 170.901 111.450 C 188.270 108.840,208.968 108.844,229.300 111.460 C 230.721 111.642,231.200 111.572,231.200 111.182 C 231.200 110.276,237.548 97.705,238.115 97.488 C 239.544 96.939,257.985 101.249,267.995 104.471 C 273.662 106.296,284.855 110.511,289.400 112.534 L 293.400 114.313 295.700 117.657 C 296.966 119.495,298.423 121.720,298.940 122.600 C 299.456 123.480,300.645 125.442,301.580 126.960 L 303.282 129.720 303.082 143.960 C 302.913 155.981,302.757 158.854,302.078 162.400 C 298.883 179.104,289.196 191.575,273.804 198.798 C 268.400 201.334,267.917 201.346,267.011 198.972 C 260.153 181.015,237.088 177.628,226.212 192.980 C 223.887 196.261,222.810 198.448,221.769 202.000 L 220.889 205.000 200.053 205.104 L 179.217 205.207 178.965 204.104 C 175.018 186.813,158.774 178.371,144.298 186.086 C 138.459 189.199,132.980 197.018,131.817 203.899 C 131.459 206.021,131.325 206.103,126.800 206.977 C 108.753 210.463,96.204 220.906,88.079 239.200 C 84.676 246.863,82.808 258.169,82.803 271.143 C 82.801 277.516,82.691 279.244,82.297 279.093 C 81.403 278.750,71.069 271.932,68.756 270.159 L 66.511 268.439 65.988 263.319 C 65.305 256.643,65.281 232.708,65.950 226.000 C 68.189 203.559,71.458 188.138,77.652 170.800 C 80.667 162.359,80.821 161.964,83.153 156.700 C 83.567 155.765,84.491 153.650,85.206 152.000 C 88.671 144.004,95.501 131.296,101.545 121.600 C 105.533 115.203,106.205 114.454,109.151 113.132 C 110.585 112.489,112.307 111.709,112.979 111.400 C 114.748 110.584,117.918 109.375,123.600 107.351 C 126.350 106.372,128.996 105.405,129.481 105.202 C 131.153 104.504,143.177 101.125,148.000 99.997 C 157.267 97.831,161.254 97.113,161.834 97.506 M319.133 160.910 C 319.866 162.720,320.622 164.560,320.814 165.000 C 321.005 165.440,321.899 168.050,322.800 170.800 C 323.701 173.550,324.586 176.160,324.767 176.600 C 325.496 178.377,326.787 182.881,327.976 187.800 C 328.667 190.660,329.394 193.630,329.591 194.400 C 334.169 212.285,336.416 244.109,334.462 263.355 C 333.841 269.461,334.414 268.731,325.800 274.396 C 324.480 275.265,322.682 276.476,321.805 277.087 C 316.614 280.710,299.890 289.882,293.591 292.562 C 291.764 293.340,289.270 294.445,285.471 296.162 C 283.594 297.010,272.759 300.947,267.499 302.692 C 265.713 303.284,265.549 303.278,264.787 302.588 C 263.549 301.468,256.000 289.876,253.593 285.400 C 252.883 284.080,251.951 282.418,251.522 281.706 C 250.222 279.549,250.625 278.810,253.800 277.528 C 257.747 275.933,257.499 276.048,264.922 272.365 C 273.193 268.260,273.109 268.346,270.793 266.345 C 268.343 264.229,268.067 264.195,264.941 265.629 C 257.054 269.244,243.499 273.726,235.400 275.396 C 234.740 275.532,233.390 275.822,232.400 276.040 C 219.297 278.929,205.148 280.053,191.900 279.257 C 181.411 278.627,177.235 278.037,164.600 275.399 C 161.755 274.805,156.536 273.514,155.800 273.222 C 155.360 273.048,153.740 272.506,152.200 272.017 C 146.257 270.133,138.858 267.418,135.644 265.942 C 131.533 264.053,131.827 264.043,129.409 266.158 C 126.835 268.410,126.686 268.258,135.914 272.799 C 140.031 274.826,143.713 276.645,144.095 276.842 C 144.477 277.039,144.974 277.200,145.199 277.200 C 146.166 277.200,149.200 278.941,149.200 279.495 C 149.200 280.236,144.452 288.953,142.371 292.031 C 141.542 293.258,140.469 294.968,139.987 295.831 C 138.700 298.134,134.821 303.200,134.345 303.200 C 133.335 303.200,116.420 297.114,112.400 295.304 C 111.190 294.759,109.570 294.039,108.800 293.704 C 103.586 291.433,96.750 287.854,96.408 287.215 C 95.579 285.666,96.194 266.672,97.230 261.800 C 99.305 252.051,101.299 247.132,105.805 240.655 C 111.274 232.791,118.629 227.151,129.200 222.713 C 129.750 222.482,130.578 222.121,131.040 221.911 C 132.639 221.184,133.684 221.693,134.812 223.748 C 137.508 228.656,141.530 232.556,146.305 234.891 L 149.800 236.600 155.000 236.600 C 165.775 236.600,173.472 230.819,177.635 219.600 C 178.404 217.527,177.429 217.613,200.251 217.606 C 223.180 217.600,222.056 217.490,222.631 219.782 C 223.991 225.199,229.950 231.979,235.917 234.897 L 239.400 236.600 244.600 236.600 C 254.725 236.600,262.815 231.087,266.207 221.877 C 267.945 217.157,268.017 217.059,270.009 216.693 C 289.407 213.133,301.773 204.099,309.830 187.600 C 312.221 182.704,312.223 182.699,313.145 179.400 C 315.120 172.337,315.797 168.832,316.421 162.439 C 317.013 156.376,317.244 156.246,319.133 160.910 " stroke="none" fill="#2c2c34" fill-rule="evenodd"></path><path id="path3" d="M317.031 157.950 C 316.912 158.142,316.729 159.627,316.625 161.250 L 316.435 164.200 316.826 161.400 C 317.041 159.860,317.393 158.540,317.608 158.467 C 318.109 158.296,318.121 157.600,317.624 157.600 C 317.417 157.600,317.150 157.757,317.031 157.950 M318.846 161.000 C 318.869 161.699,320.340 164.627,320.354 164.000 C 320.361 163.670,320.022 162.770,319.600 162.000 C 319.178 161.230,318.839 160.780,318.846 161.000 M320.400 164.849 C 320.400 165.436,321.717 168.816,321.882 168.652 C 322.103 168.430,321.192 165.585,320.718 165.020 C 320.543 164.811,320.400 164.734,320.400 164.849 M315.815 167.415 C 315.661 168.654,315.624 169.757,315.734 169.867 C 315.844 169.977,316.061 169.054,316.215 167.815 C 316.370 166.577,316.407 165.473,316.297 165.363 C 316.187 165.253,315.970 166.177,315.815 167.415 M322.012 169.600 C 322.012 169.930,322.187 170.470,322.400 170.800 C 322.745 171.333,322.788 171.333,322.788 170.800 C 322.788 170.470,322.613 169.930,322.400 169.600 C 322.055 169.067,322.012 169.067,322.012 169.600 M314.115 175.485 C 312.376 182.407,312.287 182.848,313.008 181.000 C 313.881 178.762,315.664 171.617,315.520 170.935 C 315.454 170.625,314.822 172.672,314.115 175.485 M324.428 176.676 C 324.518 177.715,325.144 178.596,325.172 177.724 C 325.187 177.242,325.020 176.736,324.800 176.600 C 324.580 176.464,324.413 176.498,324.428 176.676 M325.300 179.300 C 325.401 179.575,325.898 181.377,326.404 183.305 C 326.910 185.232,327.411 186.723,327.517 186.616 C 327.826 186.307,325.707 178.800,325.311 178.800 C 325.203 178.800,325.198 179.025,325.300 179.300 M309.369 188.675 C 308.756 189.954,307.908 191.505,307.484 192.123 C 307.060 192.741,306.800 193.334,306.908 193.441 C 307.015 193.548,307.552 192.863,308.101 191.918 C 309.744 189.089,310.868 186.734,310.670 186.536 C 310.567 186.434,309.982 187.396,309.369 188.675 M327.668 187.600 C 327.688 188.639,328.318 190.346,328.332 189.400 C 328.338 188.960,328.189 188.240,328.000 187.800 C 327.789 187.310,327.661 187.232,327.668 187.600 M328.662 191.800 C 328.796 192.680,328.972 193.475,329.053 193.567 C 329.356 193.910,329.129 191.768,328.781 191.000 C 328.529 190.442,328.493 190.685,328.662 191.800 M304.267 196.965 C 300.876 201.295,296.448 205.491,292.603 208.020 C 289.076 210.339,287.899 211.269,289.600 210.393 C 294.977 207.624,303.826 199.348,306.520 194.568 C 307.191 193.377,306.509 194.102,304.267 196.965 M329.458 195.200 C 329.775 196.925,330.002 197.251,329.994 195.967 C 329.991 195.435,329.811 194.730,329.594 194.400 C 329.318 193.978,329.277 194.215,329.458 195.200 M330.222 198.600 C 330.976 202.708,331.927 206.934,331.962 206.329 C 332.013 205.429,330.442 197.508,330.155 197.224 C 330.031 197.101,330.061 197.720,330.222 198.600 M332.000 207.559 C 332.000 207.830,332.355 210.875,332.788 214.326 C 333.222 217.777,333.750 222.130,333.962 224.000 L 334.348 227.400 334.156 223.600 C 333.883 218.168,332.000 204.161,332.000 207.559 M280.200 214.042 C 277.780 214.876,276.098 215.567,276.461 215.579 C 277.296 215.606,284.469 213.225,284.980 212.752 C 285.537 212.236,285.099 212.354,280.200 214.042 M273.400 216.000 L 272.600 216.344 273.400 216.344 C 273.840 216.344,274.560 216.189,275.000 216.000 L 275.800 215.656 275.000 215.656 C 274.560 215.656,273.840 215.811,273.400 216.000 M269.415 216.749 C 268.698 216.902,268.043 217.398,267.758 218.001 C 266.698 220.247,264.876 225.284,265.263 224.897 C 265.492 224.668,266.278 222.890,267.009 220.947 L 268.338 217.414 270.269 216.954 C 272.266 216.479,271.515 216.298,269.415 216.749 M178.500 217.865 C 178.225 217.976,178.000 218.254,178.000 218.482 C 178.000 218.752,178.192 218.739,178.545 218.445 C 178.939 218.118,184.998 218.022,200.410 218.096 L 221.729 218.200 222.268 219.600 C 222.757 220.869,222.785 220.888,222.571 219.802 C 222.116 217.490,223.218 217.597,200.251 217.632 C 188.563 217.649,178.775 217.754,178.500 217.865 M177.400 220.000 C 177.250 220.473,177.217 220.950,177.327 221.060 C 177.437 221.170,177.650 220.873,177.800 220.400 C 177.950 219.927,177.983 219.450,177.873 219.340 C 177.763 219.230,177.550 219.527,177.400 220.000 M131.004 221.994 C 130.852 222.239,131.228 222.294,131.997 222.141 C 132.935 221.953,133.372 222.075,133.804 222.647 C 134.118 223.061,134.380 223.211,134.387 222.980 C 134.422 221.830,131.611 221.011,131.004 221.994 M126.453 223.853 C 125.713 224.176,125.201 224.534,125.316 224.649 C 125.431 224.764,126.216 224.493,127.062 224.047 C 128.835 223.111,128.441 222.986,126.453 223.853 M134.409 223.900 C 134.414 224.065,134.785 224.650,135.233 225.200 L 136.048 226.200 135.414 224.900 C 134.811 223.665,134.389 223.245,134.409 223.900 M224.638 224.900 C 227.538 229.977,233.344 234.877,238.000 236.175 C 238.550 236.329,237.520 235.718,235.711 234.818 C 232.163 233.053,227.800 229.219,225.789 226.100 C 224.804 224.572,223.931 223.661,224.638 224.900 M121.908 226.112 C 116.553 229.122,109.543 235.140,107.128 238.800 L 105.941 240.600 107.243 239.000 C 111.051 234.323,115.894 230.218,121.628 226.807 C 125.340 224.598,125.557 224.061,121.908 226.112 M173.458 227.424 C 171.731 229.757,169.972 231.414,166.785 233.709 C 165.829 234.397,165.841 234.399,167.200 233.754 C 168.807 232.991,173.849 227.981,174.923 226.080 C 176.013 224.149,175.605 224.523,173.458 227.424 M263.358 227.100 C 258.103 234.032,252.999 236.600,244.475 236.600 C 241.547 236.600,239.567 236.717,240.075 236.860 C 247.737 239.015,258.259 234.791,263.525 227.448 C 265.109 225.239,264.977 224.964,263.358 227.100 M136.445 227.100 C 139.988 231.670,144.484 235.083,148.400 236.175 C 148.950 236.329,147.956 235.735,146.190 234.857 C 142.894 233.216,138.267 229.393,137.228 227.452 C 136.918 226.873,136.493 226.400,136.283 226.400 C 136.074 226.400,136.146 226.715,136.445 227.100 M334.600 244.600 C 334.600 253.840,334.711 259.330,334.847 256.800 C 334.983 254.270,335.095 248.780,335.095 244.600 C 335.095 240.420,334.983 234.930,334.847 232.400 C 334.711 229.870,334.600 235.360,334.600 244.600 M163.000 235.534 C 160.802 236.490,160.136 236.579,155.086 236.589 C 151.195 236.597,150.018 236.698,151.086 236.932 C 154.995 237.788,164.432 236.367,165.416 234.774 C 165.543 234.568,165.592 234.420,165.524 234.445 C 165.456 234.470,164.320 234.960,163.000 235.534 M103.605 243.857 C 102.319 245.884,99.839 251.572,100.119 251.852 C 100.214 251.948,100.694 250.953,101.185 249.641 C 101.675 248.330,102.768 246.074,103.612 244.628 C 105.371 241.618,105.366 241.080,103.605 243.857 M98.629 255.429 C 98.481 256.015,98.451 256.584,98.561 256.694 C 98.671 256.804,98.881 256.415,99.029 255.829 C 99.176 255.242,99.206 254.673,99.096 254.563 C 98.986 254.453,98.776 254.842,98.629 255.429 M97.800 258.800 C 97.648 259.491,97.607 260.141,97.709 260.242 C 97.811 260.344,98.009 259.853,98.150 259.150 C 98.483 257.483,98.160 257.160,97.800 258.800 M97.082 262.350 C 96.927 263.093,96.821 264.353,96.847 265.150 C 96.886 266.373,96.950 266.256,97.257 264.403 C 97.665 261.941,97.521 260.251,97.082 262.350 M333.851 264.900 C 333.592 268.150,333.562 268.223,331.894 269.724 L 330.200 271.249 331.870 270.191 C 332.788 269.609,333.652 268.842,333.789 268.485 C 334.115 267.634,334.578 261.600,334.317 261.600 C 334.206 261.600,333.996 263.085,333.851 264.900 M129.300 265.716 C 128.145 266.640,127.200 267.679,127.200 268.026 C 127.200 268.745,134.601 273.031,138.214 274.405 C 140.362 275.222,138.955 274.394,133.812 271.813 C 126.873 268.332,126.893 268.359,129.409 266.158 C 131.753 264.108,131.828 264.097,134.453 265.427 C 135.568 265.992,136.563 266.370,136.665 266.268 C 136.889 266.044,132.496 263.992,131.852 264.019 C 131.603 264.029,130.455 264.793,129.300 265.716 M264.551 265.384 C 262.984 266.122,259.654 267.479,257.151 268.399 C 254.648 269.319,252.510 270.168,252.400 270.286 C 251.848 270.876,260.503 267.680,264.673 265.754 C 268.074 264.183,268.325 264.208,270.800 266.367 C 273.055 268.333,273.087 268.295,266.250 271.758 C 260.929 274.453,259.417 275.373,262.200 274.222 C 264.821 273.138,271.343 269.588,272.149 268.807 C 273.061 267.922,272.877 267.595,270.329 265.582 C 267.941 263.694,268.127 263.700,264.551 265.384 M137.649 266.761 C 138.582 267.367,144.881 269.652,145.077 269.456 C 145.214 269.320,140.941 267.645,137.800 266.605 C 137.131 266.383,137.106 266.408,137.649 266.761 M96.300 271.563 C 95.579 283.485,95.998 288.433,97.723 288.387 C 97.990 288.380,97.895 288.143,97.507 287.848 C 96.886 287.377,96.803 286.244,96.707 276.961 C 96.610 267.554,96.572 267.057,96.300 271.563 M153.200 272.382 C 153.530 272.605,154.145 272.791,154.567 272.794 C 155.590 272.802,155.271 272.573,153.800 272.244 C 152.924 272.048,152.762 272.085,153.200 272.382 M326.090 273.766 C 322.975 275.901,322.475 276.414,324.710 275.183 C 326.281 274.318,329.267 272.023,328.800 272.040 C 328.690 272.043,327.471 272.820,326.090 273.766 M155.800 273.082 C 156.290 273.538,160.373 274.561,160.639 274.294 C 160.744 274.189,159.969 273.891,158.915 273.633 C 157.862 273.375,156.640 273.062,156.200 272.937 C 155.696 272.794,155.548 272.848,155.800 273.082 M241.401 273.507 C 240.082 273.852,239.198 274.199,239.437 274.279 C 239.898 274.433,244.379 273.355,244.727 273.006 C 245.062 272.672,243.959 272.838,241.401 273.507 M161.800 274.800 C 162.240 274.989,163.050 275.138,163.600 275.132 L 164.600 275.120 163.600 274.800 C 163.050 274.624,162.240 274.474,161.800 274.468 L 161.000 274.456 161.800 274.800 M236.400 274.800 L 235.400 275.120 236.400 275.132 C 236.950 275.138,237.760 274.989,238.200 274.800 L 239.000 274.456 238.200 274.468 C 237.760 274.474,236.950 274.624,236.400 274.800 M165.600 275.600 C 165.930 275.813,166.650 275.973,167.200 275.954 L 168.200 275.920 167.200 275.600 C 165.658 275.106,164.836 275.106,165.600 275.600 M232.800 275.600 L 231.800 275.920 232.800 275.954 C 233.350 275.973,234.070 275.813,234.400 275.600 C 235.164 275.106,234.342 275.106,232.800 275.600 M169.600 276.394 C 169.930 276.611,170.635 276.791,171.167 276.794 C 172.451 276.802,172.125 276.575,170.400 276.258 C 169.415 276.077,169.178 276.118,169.600 276.394 M229.000 276.400 L 227.800 276.705 229.000 276.747 C 229.660 276.769,230.470 276.613,230.800 276.400 C 231.543 275.920,230.887 275.920,229.000 276.400 M321.800 276.639 C 321.360 276.977,319.065 278.423,316.700 279.852 C 314.335 281.281,312.400 282.550,312.400 282.672 C 312.400 282.793,312.805 282.635,313.300 282.320 C 313.795 282.006,315.640 280.905,317.400 279.873 C 319.160 278.842,321.140 277.555,321.800 277.013 C 323.103 275.944,323.103 275.639,321.800 276.639 M173.600 277.188 C 173.930 277.408,174.815 277.591,175.567 277.594 C 177.360 277.602,177.041 277.375,174.800 277.050 C 173.542 276.867,173.181 276.909,173.600 277.188 M224.600 277.200 L 223.000 277.486 224.400 277.515 C 225.170 277.531,226.160 277.389,226.600 277.200 C 227.543 276.795,226.862 276.795,224.600 277.200 M146.700 278.200 C 149.464 279.457,149.531 279.250,142.422 291.453 C 141.617 292.835,141.609 292.894,142.347 292.000 C 143.536 290.561,149.200 280.232,149.200 279.502 C 149.200 278.901,146.102 277.177,145.104 277.223 C 144.827 277.236,145.545 277.676,146.700 278.200 M178.400 277.998 C 179.388 278.316,183.089 278.535,182.767 278.256 C 182.675 278.177,181.430 278.014,180.000 277.894 C 178.440 277.763,177.800 277.805,178.400 277.998 M219.000 278.000 L 217.000 278.274 219.000 278.309 C 220.100 278.328,221.360 278.189,221.800 278.000 L 222.600 277.656 221.800 277.691 C 221.360 277.710,220.100 277.849,219.000 278.000 M251.500 278.432 C 250.667 278.917,250.590 280.314,251.337 281.411 C 251.632 281.845,252.552 283.460,253.380 285.000 C 255.148 288.288,257.203 291.600,257.474 291.600 C 257.579 291.600,257.313 291.015,256.883 290.300 C 251.395 281.185,250.728 279.576,252.057 278.645 C 253.063 277.941,252.629 277.775,251.500 278.432 M185.000 278.879 C 186.104 279.103,192.825 279.284,200.000 279.284 C 207.175 279.284,213.896 279.103,215.000 278.879 C 216.586 278.559,216.089 278.529,212.600 278.738 C 206.947 279.075,193.069 279.074,187.400 278.737 C 183.910 278.529,183.413 278.559,185.000 278.879 M310.600 283.446 C 310.160 283.787,308.026 284.963,305.858 286.058 C 303.690 287.153,302.002 288.135,302.106 288.240 C 302.211 288.344,303.355 287.861,304.648 287.166 C 309.982 284.300,312.000 283.151,312.000 282.980 C 312.000 282.630,311.391 282.833,310.600 283.446 M100.000 289.398 C 100.000 289.667,104.049 291.684,104.229 291.505 C 104.311 291.423,103.393 290.873,102.189 290.282 C 100.985 289.692,100.000 289.294,100.000 289.398 M294.800 291.600 C 294.030 292.022,293.513 292.374,293.651 292.383 C 294.065 292.411,296.800 291.205,296.800 290.995 C 296.800 290.646,296.225 290.820,294.800 291.600 M104.800 291.795 C 104.800 292.005,107.535 293.211,107.949 293.183 C 108.270 293.162,105.501 291.639,105.100 291.617 C 104.935 291.608,104.800 291.688,104.800 291.795 M291.200 293.200 C 290.430 293.622,289.913 293.974,290.051 293.983 C 290.465 294.011,293.200 292.805,293.200 292.595 C 293.200 292.246,292.625 292.420,291.200 293.200 M108.400 293.395 C 108.400 293.605,111.135 294.811,111.549 294.783 C 111.870 294.762,109.101 293.239,108.700 293.217 C 108.535 293.208,108.400 293.288,108.400 293.395 M287.800 294.778 C 286.920 295.195,286.313 295.550,286.451 295.568 C 286.840 295.618,289.600 294.414,289.600 294.195 C 289.600 293.927,289.599 293.927,287.800 294.778 M260.006 295.812 C 262.580 300.738,265.403 303.618,266.922 302.870 C 267.711 302.482,267.660 302.447,266.413 302.519 C 265.095 302.596,264.912 302.432,262.697 299.200 C 259.501 294.535,259.027 293.938,260.006 295.812 M112.000 294.967 C 112.000 295.249,112.129 295.303,119.357 298.056 C 122.193 299.136,124.580 299.953,124.661 299.872 C 124.743 299.790,122.242 298.733,119.105 297.521 C 115.967 296.310,113.085 295.182,112.700 295.016 C 112.315 294.850,112.000 294.828,112.000 294.967 M138.227 297.838 C 137.405 299.076,136.926 299.970,137.161 299.824 C 137.773 299.446,140.112 295.979,139.899 295.766 C 139.801 295.668,139.049 296.601,138.227 297.838 M280.296 297.698 C 277.269 298.813,274.857 299.790,274.937 299.870 C 275.234 300.167,286.000 296.202,286.000 295.795 C 286.000 295.688,285.955 295.616,285.900 295.635 C 285.845 295.654,283.323 296.582,280.296 297.698 M135.458 301.606 C 134.611 302.556,134.153 302.766,133.292 302.597 C 132.262 302.396,132.250 302.410,133.078 302.843 C 134.212 303.436,134.896 303.150,135.977 301.632 C 137.095 300.063,136.844 300.050,135.458 301.606 M130.400 302.000 C 130.730 302.213,131.270 302.388,131.600 302.388 C 132.133 302.388,132.133 302.345,131.600 302.000 C 131.270 301.787,130.730 301.612,130.400 301.612 C 129.867 301.612,129.867 301.655,130.400 302.000 M268.400 302.000 C 267.867 302.345,267.867 302.388,268.400 302.388 C 268.730 302.388,269.270 302.213,269.600 302.000 C 270.133 301.655,270.133 301.612,269.600 301.612 C 269.270 301.612,268.730 301.787,268.400 302.000 " stroke="none" fill="#7a6b3a" fill-rule="evenodd"></path><path id="path4" d="M317.200 158.614 C 317.200 158.732,317.451 159.227,317.758 159.714 C 318.065 160.201,319.248 163.210,320.385 166.400 C 321.523 169.590,322.790 173.100,323.200 174.200 C 323.610 175.300,324.064 176.619,324.209 177.130 C 324.354 177.642,324.544 177.990,324.630 177.904 C 325.072 177.461,318.106 158.400,317.502 158.400 C 317.336 158.400,317.200 158.496,317.200 158.614 M316.611 163.900 C 316.143 169.669,313.947 179.376,312.194 183.428 C 311.867 184.183,311.328 185.430,310.995 186.200 C 310.662 186.970,310.473 187.600,310.576 187.600 C 311.376 187.600,314.607 178.081,315.803 172.199 C 316.748 167.553,317.538 160.400,317.106 160.400 C 316.990 160.400,316.767 161.975,316.611 163.900 M324.937 179.400 C 325.075 180.060,325.566 181.950,326.027 183.600 C 326.489 185.250,327.200 187.924,327.609 189.543 C 328.287 192.227,328.800 193.522,328.800 192.551 C 328.800 191.900,325.146 178.612,324.909 178.400 C 324.786 178.290,324.798 178.740,324.937 179.400 M309.299 189.709 C 308.831 190.639,307.972 192.210,307.390 193.200 C 306.672 194.422,306.597 194.679,307.155 194.000 C 308.169 192.766,310.537 188.404,310.314 188.181 C 310.224 188.091,309.768 188.779,309.299 189.709 M328.834 194.200 C 328.822 194.640,328.987 195.270,329.200 195.600 C 329.714 196.395,329.714 195.396,329.200 194.200 L 328.856 193.400 328.834 194.200 M303.589 198.445 C 296.198 207.828,284.516 214.550,272.000 216.620 C 271.010 216.784,270.431 216.998,270.712 217.097 C 271.461 217.357,276.872 216.112,280.877 214.756 C 290.279 211.575,300.091 204.425,305.153 197.069 C 307.093 194.249,306.446 194.818,303.589 198.445 M329.668 197.600 C 329.662 198.150,329.811 198.960,330.000 199.400 L 330.344 200.200 330.332 199.400 C 330.326 198.960,330.176 198.150,330.000 197.600 L 329.680 196.600 329.668 197.600 M330.548 202.200 C 331.395 207.385,332.765 217.056,333.042 219.800 C 333.219 221.560,333.430 222.490,333.512 221.867 C 333.770 219.884,331.142 201.370,330.522 200.812 C 330.393 200.695,330.404 201.320,330.548 202.200 M268.131 217.900 C 265.210 226.292,261.164 231.636,255.474 234.615 C 254.249 235.256,253.309 235.843,253.385 235.918 C 253.640 236.174,256.958 234.306,259.034 232.739 C 262.450 230.160,268.000 222.025,268.000 219.597 C 268.000 219.256,268.280 218.578,268.623 218.089 C 268.991 217.563,269.068 217.200,268.810 217.200 C 268.571 217.200,268.265 217.515,268.131 217.900 M178.483 218.477 C 178.218 218.742,178.000 219.196,178.000 219.484 C 178.000 222.764,170.916 231.900,166.708 234.047 C 165.836 234.492,165.215 234.948,165.328 235.061 C 165.441 235.174,166.496 234.652,167.671 233.900 C 172.245 230.974,175.935 226.201,178.184 220.300 L 178.909 218.400 200.075 218.400 L 221.241 218.400 221.840 219.900 C 224.765 227.216,228.930 232.201,234.487 235.037 C 237.162 236.402,237.426 236.220,234.839 234.794 C 228.974 231.562,224.363 226.107,222.332 220.000 L 221.733 218.200 200.350 218.097 C 184.052 218.018,178.852 218.108,178.483 218.477 M131.000 222.419 C 130.417 222.683,130.589 222.721,131.635 222.558 C 133.056 222.338,133.085 222.362,134.833 225.268 C 137.644 229.942,144.599 236.045,147.056 235.993 C 147.245 235.989,146.429 235.450,145.242 234.796 C 140.331 232.089,136.607 228.207,134.022 223.100 C 133.443 221.957,132.493 221.742,131.000 222.419 M333.696 225.400 C 333.687 226.500,333.814 228.930,333.978 230.800 L 334.276 234.200 334.299 231.000 C 334.311 229.240,334.184 226.810,334.017 225.600 L 333.713 223.400 333.696 225.400 M123.333 225.848 C 113.941 230.823,105.944 239.038,101.977 247.787 C 101.304 249.272,100.822 250.556,100.907 250.641 C 100.992 250.726,101.575 249.671,102.202 248.298 C 106.503 238.874,114.002 231.096,123.519 226.187 C 126.074 224.869,126.786 224.400,126.233 224.400 C 126.141 224.400,124.836 225.051,123.333 225.848 M147.800 236.400 C 147.936 236.620,148.442 236.787,148.924 236.772 C 149.769 236.745,149.771 236.731,149.000 236.400 C 147.899 235.927,147.508 235.927,147.800 236.400 M237.400 236.274 C 238.578 237.426,247.527 238.119,249.795 237.233 C 250.232 237.063,248.665 237.008,246.312 237.113 C 242.455 237.285,240.263 237.038,237.752 236.148 C 237.259 235.974,237.138 236.017,237.400 236.274 M150.538 237.294 C 151.114 237.660,159.153 237.642,160.085 237.272 C 160.462 237.122,158.364 237.000,155.423 237.000 C 152.482 237.000,150.284 237.132,150.538 237.294 M334.567 244.400 C 334.567 248.690,334.626 250.445,334.698 248.300 C 334.770 246.155,334.770 242.645,334.698 240.500 C 334.626 238.355,334.567 240.110,334.567 244.400 M99.473 253.753 C 99.323 254.145,99.211 254.766,99.225 255.133 C 99.242 255.575,99.381 255.474,99.637 254.834 C 99.849 254.303,99.961 253.682,99.885 253.454 C 99.809 253.227,99.624 253.361,99.473 253.753 M333.867 259.938 C 333.689 262.874,333.628 265.361,333.731 265.465 C 333.995 265.728,334.504 257.702,334.332 256.000 C 334.254 255.230,334.045 257.002,333.867 259.938 M98.586 257.053 C 98.447 257.684,98.254 258.449,98.158 258.754 C 97.342 261.342,96.800 268.889,96.800 277.675 L 96.800 287.610 102.500 290.350 C 108.390 293.182,109.600 293.701,109.600 293.397 C 109.600 293.299,108.299 292.630,106.709 291.910 C 105.120 291.189,102.375 289.880,100.609 289.000 L 97.400 287.400 97.277 278.800 C 97.150 269.912,97.596 263.391,98.638 258.899 C 98.969 257.473,99.149 256.216,99.039 256.106 C 98.929 255.996,98.725 256.422,98.586 257.053 M266.400 264.200 C 265.193 264.890,265.566 264.981,266.973 264.340 C 268.891 263.466,273.486 267.379,272.204 268.796 C 271.434 269.646,271.901 269.939,272.720 269.120 C 273.690 268.150,273.180 267.184,270.756 265.399 C 268.074 263.425,267.859 263.366,266.400 264.200 M128.700 265.806 C 127.435 266.799,126.400 267.761,126.400 267.944 C 126.400 268.463,127.975 269.758,128.260 269.474 C 128.400 269.333,128.219 269.105,127.857 268.967 C 126.680 268.515,127.161 267.394,129.200 265.839 C 130.946 264.507,131.471 263.999,131.100 264.000 C 131.045 264.000,129.965 264.813,128.700 265.806 M134.000 264.800 C 134.770 265.222,135.580 265.566,135.800 265.566 C 136.020 265.566,135.570 265.222,134.800 264.800 C 134.030 264.378,133.220 264.034,133.000 264.034 C 132.780 264.034,133.230 264.378,134.000 264.800 M264.009 265.186 C 263.683 265.392,260.679 266.600,257.332 267.871 C 253.986 269.141,251.315 270.248,251.397 270.330 C 251.707 270.640,265.200 265.411,265.200 264.981 C 265.200 264.688,264.645 264.784,264.009 265.186 M136.600 265.886 C 136.820 266.109,139.070 267.047,141.600 267.971 C 144.130 268.895,147.100 269.997,148.200 270.418 C 152.454 272.050,167.051 275.883,167.458 275.475 C 167.541 275.392,165.582 274.831,163.104 274.228 C 155.603 272.402,150.506 270.849,144.000 268.405 C 140.590 267.124,137.440 265.942,137.000 265.779 C 136.462 265.579,136.331 265.615,136.600 265.886 M333.254 267.242 C 333.183 268.612,326.653 273.354,315.683 280.003 C 313.418 281.376,311.637 282.570,311.724 282.657 C 312.099 283.032,329.365 271.872,332.340 269.332 C 333.365 268.457,333.637 267.954,333.495 267.194 L 333.309 266.200 333.254 267.242 M129.400 270.271 C 130.415 271.061,140.785 276.153,140.967 275.951 C 141.042 275.868,138.290 274.416,134.851 272.724 C 131.413 271.032,128.960 269.928,129.400 270.271 M269.900 270.229 C 269.295 270.557,268.800 270.910,268.800 271.013 C 268.800 271.399,269.432 271.157,270.400 270.400 C 271.589 269.470,271.411 269.409,269.900 270.229 M247.200 271.435 C 245.550 271.961,241.590 273.042,238.400 273.838 C 233.032 275.177,230.333 276.064,233.600 275.416 C 238.650 274.413,250.100 271.234,250.653 270.680 C 251.074 270.259,250.489 270.387,247.200 271.435 M264.800 272.930 C 261.006 274.797,257.327 276.446,254.252 277.658 C 251.132 278.888,250.420 280.251,252.087 281.800 C 252.390 282.081,252.427 281.963,252.213 281.400 C 251.476 279.462,251.516 279.380,253.675 278.419 C 254.844 277.898,256.930 276.961,258.310 276.336 C 259.691 275.711,260.915 275.200,261.031 275.200 C 261.396 275.200,267.782 271.958,268.180 271.570 C 268.757 271.009,268.474 271.122,264.800 272.930 M168.033 275.747 C 168.125 275.828,168.920 276.014,169.800 276.162 C 170.946 276.354,171.230 276.314,170.800 276.021 C 170.260 275.653,167.632 275.393,168.033 275.747 M229.200 276.021 C 228.770 276.314,229.054 276.354,230.200 276.162 C 232.184 275.830,232.504 275.598,230.967 275.606 C 230.325 275.609,229.530 275.796,229.200 276.021 M141.600 276.198 C 141.600 276.374,144.567 277.766,147.100 278.778 C 148.620 279.385,148.681 279.735,147.577 281.545 C 147.126 282.285,146.844 282.977,146.951 283.084 C 147.175 283.308,148.800 280.245,148.800 279.599 C 148.800 279.361,147.585 278.617,146.100 277.945 C 142.647 276.383,141.600 275.976,141.600 276.198 M172.033 276.544 C 172.125 276.624,173.010 276.796,174.000 276.927 C 175.202 277.086,175.534 277.047,175.000 276.810 C 174.236 276.472,171.686 276.243,172.033 276.544 M225.000 276.800 L 224.200 277.144 225.000 277.125 C 225.440 277.114,226.340 276.968,227.000 276.800 L 228.200 276.495 227.000 276.475 C 226.340 276.465,225.440 276.611,225.000 276.800 M178.200 277.623 C 179.080 277.805,180.340 277.943,181.000 277.930 L 182.200 277.905 181.000 277.600 C 180.340 277.432,179.080 277.294,178.200 277.293 L 176.600 277.292 178.200 277.623 M219.000 277.600 L 217.800 277.905 219.000 277.930 C 219.660 277.943,220.920 277.805,221.800 277.623 L 223.400 277.292 221.800 277.293 C 220.920 277.294,219.660 277.432,219.000 277.600 M185.200 278.475 C 188.605 279.007,211.453 279.009,214.800 278.477 C 216.918 278.141,216.362 278.114,211.800 278.332 C 204.678 278.673,195.807 278.674,188.400 278.334 C 183.767 278.122,183.123 278.150,185.200 278.475 M252.522 282.700 C 257.645 291.779,264.400 302.272,265.358 302.639 C 265.850 302.828,273.936 300.309,275.200 299.574 C 276.213 298.984,275.573 299.151,270.637 300.767 C 268.017 301.625,265.672 302.249,265.427 302.155 C 264.932 301.965,258.237 292.037,256.691 289.200 C 254.896 285.906,252.764 282.400,252.557 282.400 C 252.445 282.400,252.429 282.535,252.522 282.700 M306.249 285.380 C 301.614 287.893,300.258 288.574,294.700 291.176 C 291.955 292.462,291.103 293.104,293.100 292.383 C 294.875 291.741,309.461 284.310,310.474 283.530 C 312.033 282.331,311.194 282.698,306.249 285.380 M145.846 284.586 C 145.491 285.128,145.200 285.650,145.200 285.745 C 145.200 285.840,144.467 287.124,143.572 288.598 C 142.677 290.072,142.026 291.359,142.125 291.459 C 142.280 291.613,144.811 287.450,146.357 284.500 C 146.987 283.297,146.654 283.353,145.846 284.586 M289.653 293.453 C 288.913 293.776,288.401 294.134,288.516 294.249 C 288.631 294.364,289.416 294.093,290.262 293.647 C 292.035 292.711,291.641 292.586,289.653 293.453 M112.800 295.052 C 115.876 296.415,125.674 300.059,125.834 299.899 C 125.928 299.805,124.699 299.233,123.102 298.629 C 121.506 298.024,118.400 296.824,116.200 295.963 C 112.280 294.428,110.035 293.826,112.800 295.052 M137.661 297.909 C 134.479 302.641,134.671 302.525,131.620 301.575 C 130.224 301.141,129.011 300.856,128.925 300.942 C 128.789 301.077,130.482 301.686,133.469 302.575 C 134.527 302.891,135.340 302.100,137.970 298.200 C 140.283 294.770,140.504 294.400,140.234 294.400 C 140.117 294.400,138.959 295.979,137.661 297.909 M285.200 295.367 C 283.990 295.860,281.422 296.861,279.493 297.592 C 277.564 298.322,276.054 298.988,276.138 299.071 C 276.334 299.267,285.475 295.907,287.019 295.071 C 288.694 294.165,287.786 294.312,285.200 295.367 M126.800 300.400 C 127.130 300.613,127.670 300.788,128.000 300.788 C 128.533 300.788,128.533 300.745,128.000 300.400 C 127.670 300.187,127.130 300.012,126.800 300.012 C 126.267 300.012,126.267 300.055,126.800 300.400 " stroke="none" fill="#9c843c" fill-rule="evenodd"></path></g></svg>