<?xml version="1.0" encoding="UTF-8"?>
<svg version="1.1" xmlns="http://www.w3.org/2000/svg" viewBox="0 0 512 512">
<path d="M0 0 C0.50966309 0.45439453 1.01932617 0.90878906 1.54443359 1.37695312 C2.07343262 1.84423828 2.60243164 2.31152344 3.14746094 2.79296875 C17.27832538 15.32547259 29.47829565 29.07472955 40.54443359 44.37695312 C40.98883789 44.99119141 41.43324219 45.60542969 41.89111328 46.23828125 C66.72384842 81.0155629 81.34265818 122.15077621 86.54443359 164.37695312 C86.64014648 165.09173828 86.73585938 165.80652344 86.83447266 166.54296875 C87.86263634 175.15890672 87.7881988 183.83738144 87.79443359 192.50195312 C87.79544571 193.76750534 87.79544571 193.76750534 87.79647827 195.05862427 C87.77879742 209.01939401 87.0716165 222.6167599 84.54443359 236.37695312 C84.36750977 237.34084961 84.19058594 238.30474609 84.00830078 239.29785156 C81.4754377 252.63584733 77.98858335 265.55472588 73.54443359 278.37695312 C73.31675293 279.04710449 73.08907227 279.71725586 72.85449219 280.40771484 C63.99230484 306.27450533 50.48734962 329.98828461 33.54443359 351.37695312 C32.79806641 352.33601563 32.05169922 353.29507812 31.28271484 354.28320312 C-10.53952645 406.85090013 -72.78935095 440.74059313 -139.45556641 448.37695312 C-148.82010437 449.38648771 -158.16944584 449.61916476 -167.58056641 449.62695312 C-168.69173325 449.62796524 -168.69173325 449.62796524 -169.8253479 449.6289978 C-198.57322069 449.58778801 -226.29837375 444.78956365 -253.45556641 435.37695312 C-254.12571777 435.14927246 -254.79586914 434.9215918 -255.48632812 434.68701172 C-281.35311861 425.82482437 -305.06689789 412.31986915 -326.45556641 395.37695312 C-327.41462891 394.63058594 -328.37369141 393.88421875 -329.36181641 393.11523438 C-382.239085 351.04670157 -415.22527674 289.18753983 -423.45556641 222.37695312 C-423.5512793 221.66216797 -423.64699219 220.94738281 -423.74560547 220.2109375 C-424.77376915 211.59499953 -424.69933161 202.91652481 -424.70556641 194.25195312 C-424.70657852 192.98640091 -424.70657852 192.98640091 -424.70761108 191.69528198 C-424.68993023 177.73451224 -423.98274932 164.13714635 -421.45556641 150.37695312 C-421.27864258 149.41305664 -421.10171875 148.44916016 -420.91943359 147.45605469 C-418.38657051 134.11805892 -414.89971616 121.19918037 -410.45556641 108.37695312 C-410.22788574 107.70680176 -410.00020508 107.03665039 -409.765625 106.34619141 C-400.90343765 80.47940092 -387.39848243 56.76562164 -370.45556641 35.37695312 C-369.70919922 34.41789062 -368.96283203 33.45882812 -368.19384766 32.47070312 C-326.37160636 -20.09699388 -264.12178187 -53.98668688 -197.45556641 -61.62304688 C-126.36508377 -69.28688475 -53.65026352 -47.60540459 0 0 Z " fill="#284D7B" transform="translate(424.45556640625,62.623046875)"/>
<path d="M0 0 C35.65332194 -0.02286519 71.3066426 -0.04049762 106.95997035 -0.05106533 C111.16463845 -0.05231611 115.36930653 -0.05361042 119.57397461 -0.05493164 C120.41108444 -0.05519395 121.24819426 -0.05545626 122.11067105 -0.05572652 C135.68323676 -0.06008346 149.25579824 -0.06797114 162.82836144 -0.0771528 C176.74446872 -0.08648868 190.66057378 -0.09205547 204.57668406 -0.09408849 C213.17073022 -0.09546386 221.76476448 -0.09981517 230.35880698 -0.10791647 C236.24388604 -0.11318312 242.12895891 -0.11480448 248.01404016 -0.11350138 C251.41459468 -0.11285787 254.81512832 -0.11387694 258.21567917 -0.11920547 C261.89375738 -0.12413514 265.57178341 -0.12300098 269.24986267 -0.12025452 C270.33641535 -0.12316736 271.42296803 -0.1260802 272.54244655 -0.12908131 C274.00845927 -0.12609474 274.00845927 -0.12609474 275.5040884 -0.12304783 C276.35428222 -0.12342755 277.20447604 -0.12380727 278.08043331 -0.1241985 C280 0 280 0 281 1 C281.76769189 4.92375856 281.67877361 6.93531343 279.50048828 10.35205078 C278.84290527 11.20782715 278.18532227 12.06360352 277.5078125 12.9453125 C273.29614388 18.56489637 269.37832569 24.33313463 265.50775146 30.1914978 C263.35370824 33.4507215 261.19054882 36.70388389 259.02734375 39.95703125 C258.55713806 40.66430862 258.08693237 41.371586 257.60247803 42.10029602 C251.23936615 51.66031108 244.80280625 61.17092962 238.375 70.6875 C229.86639366 83.28764315 221.37935247 95.90036754 212.96435547 108.56323242 C205.22709698 120.19049871 197.40234009 131.75871454 189.58679199 143.33343506 C181.40300941 155.45454915 173.24380226 167.5905692 165.15844727 179.77758789 C161.53520487 185.23040118 157.87708321 190.65619138 154.16796875 196.05078125 C153.76915497 196.63200745 153.37034119 197.21323364 152.95944214 197.81207275 C151.0515189 200.59231917 149.13816465 203.36823002 147.21386719 206.13720703 C146.20888184 207.59876221 146.20888184 207.59876221 145.18359375 209.08984375 C144.59118896 209.94441162 143.99878418 210.79897949 143.38842773 211.67944336 C142.09304141 213.84449471 141.43842464 215.53408363 141 218 C140.34 218 139.68 218 139 218 C138.4114624 216.49602661 138.4114624 216.49602661 137.81103516 214.96166992 C136.02674251 210.8084582 133.63777178 207.28347659 131.0234375 203.61328125 C130.03027889 202.19397367 129.03778615 200.77419995 128.04589844 199.35400391 C127.28569397 198.27049652 127.28569397 198.27049652 126.51013184 197.1651001 C124.12994541 193.75258886 121.80245044 190.30512081 119.4765625 186.85546875 C119.00969528 186.16431473 118.54282806 185.47316071 118.06181335 184.76106262 C116.58217413 182.57034776 115.10355034 180.37894989 113.625 178.1875 C112.55285529 176.59933855 111.48066991 175.01120454 110.40844727 173.4230957 C108.13171383 170.05059484 105.85548018 166.67775737 103.57958984 163.3046875 C100.51596368 158.76423263 97.45101114 154.22467461 94.38580322 149.68528748 C71.21703676 115.37164307 71.21703676 115.37164307 60.67602539 99.50439453 C55.45650677 91.65800457 50.16838948 83.85911965 44.875 76.0625 C36.39941236 63.57813845 27.97909268 51.05780561 19.64746094 38.47680664 C15.80938386 32.68487384 11.96779266 26.90754128 7.94921875 21.23828125 C7.37437744 20.41690674 6.79953613 19.59553223 6.20727539 18.74926758 C5.20451826 17.32380833 4.18591387 15.90925988 3.14624023 14.51049805 C0.68701689 10.98837825 -0.23340477 8.61529514 -0.11572266 4.27148438 C-0.0990152 3.46916382 -0.08230774 2.66684326 -0.06509399 1.84020996 C-0.04361298 1.23294067 -0.02213196 0.62567139 0 0 Z " fill="#FDFEFE" transform="translate(116,120)"/>
<path d="M0 0 C2.85818161 2.82553315 5.53376781 5.49029111 7.76953125 8.8359375 C8.25728027 9.55821533 8.7450293 10.28049316 9.24755859 11.0246582 C9.76398926 11.800271 10.28041992 12.57588379 10.8125 13.375 C11.96647591 15.08529166 13.12146918 16.7948972 14.27734375 18.50390625 C14.88304199 19.40125488 15.48874023 20.29860352 16.11279297 21.22314453 C19.32458983 25.94901484 22.60259571 30.62849371 25.875 35.3125 C32.49262418 44.80184825 39.02880543 54.34428171 45.53515625 63.91015625 C49.89631778 70.32193808 54.29090487 76.71051677 58.68945312 83.09667969 C61.41804208 87.05943667 64.14315928 91.02458529 66.8671875 94.99047852 C69.20251979 98.38963806 71.5424561 101.78547413 73.890625 105.17578125 C89 127.01380994 89 127.01380994 89 130 C81.45382355 130.18719 73.90789403 130.32841532 66.35990906 130.41449738 C62.85302458 130.45586151 59.3477531 130.51174316 55.84179688 130.60351562 C26.14760877 131.36056912 26.14760877 131.36056912 13 122 C12.20932129 121.47978271 11.41864258 120.95956543 10.60400391 120.42358398 C4.88010568 116.47426581 2.19786434 109.46718134 0.44801331 102.94148254 C-0.19694407 98.70694121 -0.13029326 94.52990216 -0.11352539 90.25268555 C-0.11367142 89.27659836 -0.11381744 88.30051117 -0.1139679 87.29484558 C-0.11327242 84.0754472 -0.1054971 80.856107 -0.09765625 77.63671875 C-0.09579077 75.40184053 -0.09436748 73.1669619 -0.09336853 70.93208313 C-0.08955357 65.05486926 -0.07973198 59.17768017 -0.06866455 53.30047607 C-0.05842849 47.30123225 -0.0538662 41.30198442 -0.04882812 35.30273438 C-0.03810882 23.53514537 -0.02104463 11.76757475 0 0 Z " fill="#FDFDFE" transform="translate(116,262)"/>
<path d="M0 0 C0.33 0 0.66 0 1 0 C1.11617419 13.09180394 1.20485763 26.18348395 1.25906086 39.27569962 C1.28508407 45.35586081 1.32034939 51.43566768 1.37719727 57.515625 C1.43177608 63.39008791 1.46147519 69.26421136 1.47438622 75.13890839 C1.48357972 77.37307829 1.50153199 79.60723095 1.52865028 81.84125519 C1.7062706 97.08889604 1.53133135 109.44432165 -9.7109375 121.0234375 C-21.10758595 130.86422951 -33.62676687 130.1638647 -47.984375 130.09765625 C-49.16598206 130.0962413 -50.34758911 130.09482635 -51.56500244 130.09336853 C-55.29336208 130.08782617 -59.0216589 130.07528481 -62.75 130.0625 C-65.29687413 130.05747754 -67.8437492 130.05291595 -70.390625 130.04882812 C-76.59377098 130.0378757 -82.796881 130.02119615 -89 130 C-87.89376539 128.2519554 -86.78625816 126.50471612 -85.67822266 124.7578125 C-84.75331528 123.29819092 -84.75331528 123.29819092 -83.8097229 121.80908203 C-81.43728858 118.12654996 -78.92988186 114.55712704 -76.375 111 C-72.10347257 105.00016346 -67.89624387 98.96207967 -63.75 92.875 C-58.15146978 84.66002423 -52.48552072 76.49358873 -46.80175781 68.33740234 C-42.58855791 62.28942184 -38.39577787 56.22834822 -34.23095703 50.14697266 C-31.51164496 46.18211221 -28.77006206 42.23352394 -26.015625 38.29296875 C-25.31115234 37.28427734 -24.60667969 36.27558594 -23.88085938 35.23632812 C-22.50391774 33.26620357 -21.12513856 31.29736146 -19.74414062 29.33007812 C-15.86372262 23.77605958 -12.14370772 18.14856197 -8.53125 12.41674805 C-6.79108804 9.6702775 -4.98747661 6.9774723 -3.125 4.3125 C-2.26261719 3.06919922 -2.26261719 3.06919922 -1.3828125 1.80078125 C-0.92648437 1.20652344 -0.47015625 0.61226563 0 0 Z " fill="#FDFDFD" transform="translate(395,261)"/>
</svg>
